<mxfile host="65bd71144e">
    <diagram id="0slgYLueV5A-YZOQDIgs" name="choose-multiple">
        <mxGraphModel dx="898" dy="680" grid="1" gridSize="10" guides="1" tooltips="1" connect="1" arrows="1" fold="1" page="1" pageScale="1" pageWidth="3300" pageHeight="4681" math="0" shadow="0">
            <root>
                <mxCell id="joW-rxKYUDlhL6ryJ4Ly-0"/>
                <mxCell id="joW-rxKYUDlhL6ryJ4Ly-1" parent="joW-rxKYUDlhL6ryJ4Ly-0"/>
                <mxCell id="hrdI-iU9j-UghueUI-Ib-0" value="" style="verticalLabelPosition=bottom;verticalAlign=top;html=1;shape=mxgraph.basic.rect;fillColor2=none;strokeWidth=1;size=20;indent=5;fillColor=none;dashed=1;" vertex="1" parent="joW-rxKYUDlhL6ryJ4Ly-1">
                    <mxGeometry x="335" y="730" width="360" height="110" as="geometry"/>
                </mxCell>
                <mxCell id="hrdI-iU9j-UghueUI-Ib-14" value="I/0多路复用程序" style="rounded=1;whiteSpace=wrap;html=1;strokeWidth=2;fillWeight=4;hachureGap=8;hachureAngle=45;fillColor=#5FAD56;sketch=1;fontSize=16;" vertex="1" parent="joW-rxKYUDlhL6ryJ4Ly-1">
                    <mxGeometry x="440" y="610" width="150" height="60" as="geometry"/>
                </mxCell>
                <mxCell id="hrdI-iU9j-UghueUI-Ib-24" style="edgeStyle=orthogonalEdgeStyle;html=1;entryX=0.5;entryY=1;entryDx=0;entryDy=0;fontSize=15;" edge="1" parent="joW-rxKYUDlhL6ryJ4Ly-1" source="hrdI-iU9j-UghueUI-Ib-16" target="hrdI-iU9j-UghueUI-Ib-14">
                    <mxGeometry relative="1" as="geometry">
                        <Array as="points">
                            <mxPoint x="480" y="700"/>
                            <mxPoint x="515" y="700"/>
                        </Array>
                    </mxGeometry>
                </mxCell>
                <mxCell id="hrdI-iU9j-UghueUI-Ib-16" value="epoll" style="rounded=1;whiteSpace=wrap;html=1;strokeWidth=2;fillWeight=2;hachureGap=8;hachureAngle=45;fillColor=#E9C46A;sketch=1;fontSize=16;fillStyle=dots;" vertex="1" parent="joW-rxKYUDlhL6ryJ4Ly-1">
                    <mxGeometry x="445" y="740" width="70" height="60" as="geometry"/>
                </mxCell>
                <mxCell id="hrdI-iU9j-UghueUI-Ib-25" style="edgeStyle=orthogonalEdgeStyle;html=1;entryX=0.5;entryY=1;entryDx=0;entryDy=0;fontSize=15;" edge="1" parent="joW-rxKYUDlhL6ryJ4Ly-1" source="hrdI-iU9j-UghueUI-Ib-17" target="hrdI-iU9j-UghueUI-Ib-14">
                    <mxGeometry relative="1" as="geometry">
                        <Array as="points">
                            <mxPoint x="560" y="700"/>
                            <mxPoint x="515" y="700"/>
                        </Array>
                    </mxGeometry>
                </mxCell>
                <mxCell id="hrdI-iU9j-UghueUI-Ib-17" value="evport" style="rounded=1;whiteSpace=wrap;html=1;strokeWidth=2;fillWeight=2;hachureGap=8;hachureAngle=45;fillColor=#E9C46A;sketch=1;fontSize=16;fillStyle=dots;" vertex="1" parent="joW-rxKYUDlhL6ryJ4Ly-1">
                    <mxGeometry x="525" y="740" width="70" height="60" as="geometry"/>
                </mxCell>
                <mxCell id="hrdI-iU9j-UghueUI-Ib-23" style="edgeStyle=orthogonalEdgeStyle;html=1;entryX=0.5;entryY=1;entryDx=0;entryDy=0;fontSize=15;" edge="1" parent="joW-rxKYUDlhL6ryJ4Ly-1" source="hrdI-iU9j-UghueUI-Ib-18" target="hrdI-iU9j-UghueUI-Ib-14">
                    <mxGeometry relative="1" as="geometry">
                        <Array as="points">
                            <mxPoint x="645" y="700"/>
                            <mxPoint x="515" y="700"/>
                        </Array>
                    </mxGeometry>
                </mxCell>
                <mxCell id="hrdI-iU9j-UghueUI-Ib-18" value="kqueue" style="rounded=1;whiteSpace=wrap;html=1;strokeWidth=2;fillWeight=2;hachureGap=8;hachureAngle=45;fillColor=#E9C46A;sketch=1;fontSize=16;fillStyle=dots;" vertex="1" parent="joW-rxKYUDlhL6ryJ4Ly-1">
                    <mxGeometry x="610" y="740" width="70" height="60" as="geometry"/>
                </mxCell>
                <mxCell id="hrdI-iU9j-UghueUI-Ib-22" style="edgeStyle=orthogonalEdgeStyle;html=1;entryX=0.5;entryY=1;entryDx=0;entryDy=0;fontSize=15;" edge="1" parent="joW-rxKYUDlhL6ryJ4Ly-1" source="hrdI-iU9j-UghueUI-Ib-21" target="hrdI-iU9j-UghueUI-Ib-14">
                    <mxGeometry relative="1" as="geometry">
                        <Array as="points">
                            <mxPoint x="380" y="700"/>
                            <mxPoint x="515" y="700"/>
                        </Array>
                    </mxGeometry>
                </mxCell>
                <mxCell id="hrdI-iU9j-UghueUI-Ib-21" value="select" style="rounded=1;whiteSpace=wrap;html=1;strokeWidth=2;fillWeight=2;hachureGap=8;hachureAngle=45;fillColor=#E9C46A;sketch=1;fontSize=16;fillStyle=dots;" vertex="1" parent="joW-rxKYUDlhL6ryJ4Ly-1">
                    <mxGeometry x="355" y="740" width="70" height="60" as="geometry"/>
                </mxCell>
                <mxCell id="hrdI-iU9j-UghueUI-Ib-26" value="底层实现" style="text;html=1;align=center;verticalAlign=middle;resizable=0;points=[];autosize=1;strokeColor=none;fillColor=none;fontSize=15;" vertex="1" parent="joW-rxKYUDlhL6ryJ4Ly-1">
                    <mxGeometry x="475" y="810" width="80" height="20" as="geometry"/>
                </mxCell>
            </root>
        </mxGraphModel>
    </diagram>
    <diagram id="d7wYdvXdE9nHoiHe4cBe" name="multiple">
        <mxGraphModel dx="855" dy="648" grid="1" gridSize="10" guides="1" tooltips="1" connect="1" arrows="1" fold="1" page="1" pageScale="1" pageWidth="3300" pageHeight="4681" math="0" shadow="0">
            <root>
                <mxCell id="nZqQR4pAr8_zJrDv7Qbp-0"/>
                <mxCell id="nZqQR4pAr8_zJrDv7Qbp-1" parent="nZqQR4pAr8_zJrDv7Qbp-0"/>
                <mxCell id="45" value="" style="verticalLabelPosition=bottom;verticalAlign=top;html=1;shape=mxgraph.basic.rect;fillColor2=none;strokeWidth=1;size=20;indent=5;fillColor=none;dashed=1;" vertex="1" parent="nZqQR4pAr8_zJrDv7Qbp-1">
                    <mxGeometry x="380" y="740" width="270" height="80" as="geometry"/>
                </mxCell>
                <mxCell id="33" style="edgeStyle=orthogonalEdgeStyle;html=1;fontSize=25;" edge="1" parent="nZqQR4pAr8_zJrDv7Qbp-1" source="21" target="29">
                    <mxGeometry relative="1" as="geometry"/>
                </mxCell>
                <mxCell id="21" value="IO多路复用程序" style="rounded=1;whiteSpace=wrap;html=1;strokeWidth=2;fillWeight=4;hachureGap=8;hachureAngle=45;fillColor=#5FAD56;sketch=1;fontSize=16;" vertex="1" parent="nZqQR4pAr8_zJrDv7Qbp-1">
                    <mxGeometry x="440" y="370" width="150" height="60" as="geometry"/>
                </mxCell>
                <mxCell id="27" style="edgeStyle=orthogonalEdgeStyle;html=1;entryX=0.5;entryY=0;entryDx=0;entryDy=0;fontSize=25;" edge="1" parent="nZqQR4pAr8_zJrDv7Qbp-1" source="22" target="21">
                    <mxGeometry relative="1" as="geometry"/>
                </mxCell>
                <mxCell id="22" value="fd1" style="ellipse;whiteSpace=wrap;html=1;strokeWidth=2;fillWeight=2;hachureGap=8;fillColor=#E63946;fillStyle=dots;sketch=1;fontSize=16;" vertex="1" parent="nZqQR4pAr8_zJrDv7Qbp-1">
                    <mxGeometry x="370" y="260" width="120" height="60" as="geometry"/>
                </mxCell>
                <mxCell id="28" style="edgeStyle=orthogonalEdgeStyle;html=1;entryX=0.5;entryY=0;entryDx=0;entryDy=0;fontSize=25;" edge="1" parent="nZqQR4pAr8_zJrDv7Qbp-1" source="24" target="21">
                    <mxGeometry relative="1" as="geometry"/>
                </mxCell>
                <mxCell id="24" value="fd10" style="ellipse;whiteSpace=wrap;html=1;strokeWidth=2;fillWeight=2;hachureGap=8;fillColor=#E63946;fillStyle=dots;sketch=1;fontSize=16;" vertex="1" parent="nZqQR4pAr8_zJrDv7Qbp-1">
                    <mxGeometry x="550" y="260" width="120" height="60" as="geometry"/>
                </mxCell>
                <mxCell id="25" value="&lt;font style=&quot;font-size: 25px&quot;&gt;...&lt;/font&gt;" style="text;html=1;align=center;verticalAlign=middle;resizable=0;points=[];autosize=1;strokeColor=none;fillColor=none;fontSize=16;strokeWidth=2;" vertex="1" parent="nZqQR4pAr8_zJrDv7Qbp-1">
                    <mxGeometry x="500" y="275" width="40" height="30" as="geometry"/>
                </mxCell>
                <mxCell id="29" value="" style="rounded=1;whiteSpace=wrap;html=1;strokeWidth=2;fillWeight=4;hachureGap=8;hachureAngle=45;sketch=1;fillColor=#2A9D8F;direction=south;" vertex="1" parent="nZqQR4pAr8_zJrDv7Qbp-1">
                    <mxGeometry x="485" y="460" width="60" height="40" as="geometry"/>
                </mxCell>
                <mxCell id="30" value="" style="rounded=1;whiteSpace=wrap;html=1;strokeWidth=2;fillWeight=4;hachureGap=8;hachureAngle=45;sketch=1;fillColor=#2A9D8F;direction=south;" vertex="1" parent="nZqQR4pAr8_zJrDv7Qbp-1">
                    <mxGeometry x="485" y="500" width="60" height="40" as="geometry"/>
                </mxCell>
                <mxCell id="31" value="" style="rounded=1;whiteSpace=wrap;html=1;strokeWidth=2;fillWeight=4;hachureGap=8;hachureAngle=45;sketch=1;fillColor=#2A9D8F;direction=south;" vertex="1" parent="nZqQR4pAr8_zJrDv7Qbp-1">
                    <mxGeometry x="485" y="540" width="60" height="40" as="geometry"/>
                </mxCell>
                <mxCell id="35" style="edgeStyle=orthogonalEdgeStyle;html=1;entryX=0.5;entryY=0;entryDx=0;entryDy=0;fontSize=25;" edge="1" parent="nZqQR4pAr8_zJrDv7Qbp-1" source="32" target="34">
                    <mxGeometry relative="1" as="geometry"/>
                </mxCell>
                <mxCell id="32" value="" style="rounded=1;whiteSpace=wrap;html=1;strokeWidth=2;fillWeight=4;hachureGap=8;hachureAngle=45;sketch=1;fillColor=#2A9D8F;direction=south;" vertex="1" parent="nZqQR4pAr8_zJrDv7Qbp-1">
                    <mxGeometry x="485" y="580" width="60" height="40" as="geometry"/>
                </mxCell>
                <mxCell id="46" value="" style="edgeStyle=orthogonalEdgeStyle;html=1;fontSize=15;" edge="1" parent="nZqQR4pAr8_zJrDv7Qbp-1" source="34" target="45">
                    <mxGeometry relative="1" as="geometry"/>
                </mxCell>
                <mxCell id="34" value="文件事件分派器" style="rounded=1;whiteSpace=wrap;html=1;strokeWidth=2;fillWeight=4;hachureGap=8;hachureAngle=45;fillColor=#5FAD56;sketch=1;fontSize=16;" vertex="1" parent="nZqQR4pAr8_zJrDv7Qbp-1">
                    <mxGeometry x="440" y="650" width="150" height="60" as="geometry"/>
                </mxCell>
                <mxCell id="36" value="&lt;span style=&quot;font-size: 15px&quot;&gt;事件队列&lt;/span&gt;" style="text;html=1;align=center;verticalAlign=middle;resizable=0;points=[];autosize=1;strokeColor=none;fillColor=none;fontSize=25;" vertex="1" parent="nZqQR4pAr8_zJrDv7Qbp-1">
                    <mxGeometry x="545" y="490" width="80" height="40" as="geometry"/>
                </mxCell>
                <mxCell id="41" value="连接" style="rounded=1;whiteSpace=wrap;html=1;strokeWidth=2;fillWeight=2;hachureGap=8;hachureAngle=45;fillColor=#E9C46A;sketch=1;fontSize=16;fillStyle=dots;" vertex="1" parent="nZqQR4pAr8_zJrDv7Qbp-1">
                    <mxGeometry x="400" y="750" width="70" height="60" as="geometry"/>
                </mxCell>
                <mxCell id="42" value="执行命令" style="rounded=1;whiteSpace=wrap;html=1;strokeWidth=2;fillWeight=2;hachureGap=8;hachureAngle=45;fillColor=#E9C46A;sketch=1;fontSize=16;fillStyle=dots;" vertex="1" parent="nZqQR4pAr8_zJrDv7Qbp-1">
                    <mxGeometry x="480" y="750" width="70" height="60" as="geometry"/>
                </mxCell>
                <mxCell id="43" value="响应回复" style="rounded=1;whiteSpace=wrap;html=1;strokeWidth=2;fillWeight=2;hachureGap=8;hachureAngle=45;fillColor=#E9C46A;sketch=1;fontSize=16;fillStyle=dots;" vertex="1" parent="nZqQR4pAr8_zJrDv7Qbp-1">
                    <mxGeometry x="565" y="750" width="70" height="60" as="geometry"/>
                </mxCell>
                <mxCell id="47" value="监听套接字" style="text;html=1;align=center;verticalAlign=middle;resizable=0;points=[];autosize=1;strokeColor=none;fillColor=none;fontSize=15;" vertex="1" parent="nZqQR4pAr8_zJrDv7Qbp-1">
                    <mxGeometry x="385" y="230" width="90" height="20" as="geometry"/>
                </mxCell>
                <mxCell id="48" value="监听套接字" style="text;html=1;align=center;verticalAlign=middle;resizable=0;points=[];autosize=1;strokeColor=none;fillColor=none;fontSize=15;" vertex="1" parent="nZqQR4pAr8_zJrDv7Qbp-1">
                    <mxGeometry x="565" y="230" width="90" height="20" as="geometry"/>
                </mxCell>
            </root>
        </mxGraphModel>
    </diagram>
</mxfile>